<svg width="48" height="48" viewBox="0 0 48 48" fill="none" xmlns="http://www.w3.org/2000/svg">
<path d="M48 7C48 10.866 44.866 14 41 14C37.134 14 34 10.866 34 7C34 3.13401 37.134 0 41 0C44.866 0 48 3.13401 48 7Z" fill="#EEEEEE"/>
<path d="M48 24C48 27.866 44.866 31 41 31C37.134 31 34 27.866 34 24C34 20.134 37.134 17 41 17C44.866 17 48 20.134 48 24Z" fill="#EEEEEE"/>
<path d="M48 41C48 44.866 44.866 48 41 48C37.134 48 34 44.866 34 41C34 37.134 37.134 34 41 34C44.866 34 48 37.134 48 41Z" fill="#EEEEEE"/>
<path d="M31 7C31 10.866 27.866 14 24 14C20.134 14 17 10.866 17 7C17 3.13401 20.134 0 24 0C27.866 0 31 3.13401 31 7Z" fill="#EEEEEE"/>
<path d="M31 24C31 27.866 27.866 31 24 31C20.134 31 17 27.866 17 24C17 20.134 20.134 17 24 17C27.866 17 31 20.134 31 24Z" fill="#EEEEEE"/>
<path d="M31 41C31 44.866 27.866 48 24 48C20.134 48 17 44.866 17 41C17 37.134 20.134 34 24 34C27.866 34 31 37.134 31 41Z" fill="#EEEEEE"/>
<path d="M14 7C14 10.866 10.866 14 7 14C3.13401 14 0 10.866 0 7C0 3.13401 3.13401 0 7 0C10.866 0 14 3.13401 14 7Z" fill="#EEEEEE"/>
<path d="M14 24C14 27.866 10.866 31 7 31C3.13401 31 0 27.866 0 24C0 20.134 3.13401 17 7 17C10.866 17 14 20.134 14 24Z" fill="#EEEEEE"/>
<path d="M14 41C14 44.866 10.866 48 7 48C3.13401 48 0 44.866 0 41C0 37.134 3.13401 34 7 34C10.866 34 14 37.134 14 41Z" fill="#EEEEEE"/>
</svg>
