<svg width="48" height="48" viewBox="0 0 48 48" fill="none" xmlns="http://www.w3.org/2000/svg">
<path d="M0 0H9.60001V9.6H0V0Z" fill="#EEEEEE"/>
<path d="M19.2 0H28.8V9.6H19.2V0Z" fill="#EEEEEE"/>
<path d="M38.4 0H48V9.6H38.4V0Z" fill="#EEEEEE"/>
<path d="M9.60001 9.6H19.2V19.2H9.60001V9.6Z" fill="#EEEEEE"/>
<path d="M28.8 9.6H38.4V19.2H28.8V9.6Z" fill="#EEEEEE"/>
<path d="M0 19.2H9.60001V28.8H0V19.2Z" fill="#EEEEEE"/>
<path d="M19.2 19.2H28.8V28.8H19.2V19.2Z" fill="#EEEEEE"/>
<path d="M38.4 19.2H48V28.8H38.4V19.2Z" fill="#EEEEEE"/>
<path d="M9.60001 28.8H19.2V38.4H9.60001V28.8Z" fill="#EEEEEE"/>
<path d="M28.8 28.8H38.4V38.4H28.8V28.8Z" fill="#EEEEEE"/>
<path d="M0 38.4H9.60001V48H0V38.4Z" fill="#EEEEEE"/>
<path d="M19.2 38.4H28.8V48H19.2V38.4Z" fill="#EEEEEE"/>
<path d="M38.4 38.4H48V48H38.4V38.4Z" fill="#EEEEEE"/>
</svg>
