<svg width="48" height="32" viewBox="0 0 48 32" fill="none" xmlns="http://www.w3.org/2000/svg">
<path d="M46 24C46 27.3137 43.3137 30 40 30C36.6863 30 34 27.3137 34 24C34 20.6863 36.6863 18 40 18C43.3137 18 46 20.6863 46 24Z" fill="#EEEEEE"/>
<path d="M30 8C30 11.3137 27.3137 14 24 14C20.6863 14 18 11.3137 18 8C18 4.68629 20.6863 2 24 2C27.3137 2 30 4.68629 30 8Z" fill="#EEEEEE"/>
<path d="M14 24C14 27.3137 11.3137 30 8 30C4.68629 30 2 27.3137 2 24C2 20.6863 4.68629 18 8 18C11.3137 18 14 20.6863 14 24Z" fill="#EEEEEE"/>
<path d="M41 0C44.866 0 48 3.13401 48 7C48 10.866 44.866 14 41 14C39.3398 14 37.5619 14.2359 36.388 15.4098L32.4098 19.388C31.2359 20.5619 31 22.3398 31 24C31 27.866 27.866 31 24 31C20.134 31 17 27.866 17 24C17 22.5355 16.7452 20.9883 15.7098 19.9527L11.0472 15.2896C10.0117 14.2539 8.46454 14 7 14C3.13401 14 0 10.866 0 7C0 3.13401 3.13401 0 7 0C10.866 0 14 3.13401 14 7C14 8.46454 14.2539 10.0117 15.2896 11.0472L19.9527 15.7098C20.9883 16.7452 22.5355 17 24 17C25.2598 17 26.5722 16.7403 27.463 15.8495L32.8495 10.463C33.7403 9.57218 34 8.25976 34 7C34 3.13401 37.134 0 41 0Z" fill="#EEEEEE"/>
</svg>
