<svg width="30" height="302" viewBox="0 0 30 302" fill="none" xmlns="http://www.w3.org/2000/svg">
<rect x="30" width="2" height="30" transform="rotate(90 30 0)" fill="#EEEEEE" fill-opacity="0.6"/>
<rect x="30" y="18" width="2" height="30" transform="rotate(90 30 18)" fill="#EEEEEE" fill-opacity="0.6"/>
<rect x="30" y="80" width="2" height="30" transform="rotate(90 30 80)" fill="#EEEEEE" fill-opacity="0.6"/>
<rect x="30" y="86" width="2" height="30" transform="rotate(90 30 86)" fill="#EEEEEE" fill-opacity="0.6"/>
<rect x="30" y="92" width="2" height="30" transform="rotate(90 30 92)" fill="#EEEEEE" fill-opacity="0.6"/>
<rect x="30" y="102" width="2" height="30" transform="rotate(90 30 102)" fill="#EEEEEE" fill-opacity="0.6"/>
<rect x="30" y="108" width="2" height="30" transform="rotate(90 30 108)" fill="#EEEEEE" fill-opacity="0.6"/>
<rect x="30" y="130" width="2" height="30" transform="rotate(90 30 130)" fill="#EEEEEE" fill-opacity="0.6"/>
<rect x="30" y="6" width="8" height="30" transform="rotate(90 30 6)" fill="#EEEEEE" fill-opacity="0.6"/>
<rect x="30" y="28" width="8" height="30" transform="rotate(90 30 28)" fill="#EEEEEE" fill-opacity="0.6"/>
<rect x="30" y="40" width="8" height="30" transform="rotate(90 30 40)" fill="#EEEEEE" fill-opacity="0.6"/>
<rect x="30" y="52" width="8" height="30" transform="rotate(90 30 52)" fill="#EEEEEE" fill-opacity="0.6"/>
<rect x="30" y="68" width="8" height="30" transform="rotate(90 30 68)" fill="#EEEEEE" fill-opacity="0.6"/>
<rect x="30" y="118" width="8" height="30" transform="rotate(90 30 118)" fill="#EEEEEE" fill-opacity="0.6"/>
<rect x="30" y="148" width="2.23188" height="30" transform="rotate(90 30 148)" fill="#EEEEEE" fill-opacity="0.6"/>
<rect x="30" y="181.478" width="2.23188" height="30" transform="rotate(90 30 181.478)" fill="#EEEEEE" fill-opacity="0.6"/>
<rect x="30" y="288.609" width="2.23188" height="30" transform="rotate(90 30 288.609)" fill="#EEEEEE" fill-opacity="0.6"/>
<rect x="30" y="299.768" width="2.23188" height="30" transform="rotate(90 30 299.768)" fill="#EEEEEE" fill-opacity="0.6"/>
<rect x="30" y="281.913" width="2.23188" height="30" transform="rotate(90 30 281.913)" fill="#EEEEEE" fill-opacity="0.6"/>
<rect x="30" y="154.696" width="8.92754" height="30" transform="rotate(90 30 154.696)" fill="#EEEEEE" fill-opacity="0.6"/>
<rect x="30" y="168.087" width="8.92754" height="30" transform="rotate(90 30 168.087)" fill="#EEEEEE" fill-opacity="0.6"/>
<rect x="30" y="192.638" width="8.92754" height="30" transform="rotate(90 30 192.638)" fill="#EEEEEE" fill-opacity="0.6"/>
<rect x="30" y="206.029" width="8.92754" height="30" transform="rotate(90 30 206.029)" fill="#EEEEEE" fill-opacity="0.6"/>
<rect x="30" y="219.42" width="8.92754" height="30" transform="rotate(90 30 219.42)" fill="#EEEEEE" fill-opacity="0.6"/>
<rect x="30" y="237.275" width="8.92754" height="30" transform="rotate(90 30 237.275)" fill="#EEEEEE" fill-opacity="0.6"/>
<rect x="30" y="255.13" width="8.92754" height="30" transform="rotate(90 30 255.13)" fill="#EEEEEE" fill-opacity="0.6"/>
<rect x="30" y="268.522" width="8.92754" height="30" transform="rotate(90 30 268.522)" fill="#EEEEEE" fill-opacity="0.6"/>
</svg>
