<svg width="24" height="104" viewBox="0 0 24 104" fill="none" xmlns="http://www.w3.org/2000/svg">
<rect x="0.5" y="0.5" width="23" height="103" rx="11.5" stroke="#EEEEEE"/>
<path d="M12 17L6.2069 24H4L12 14.3333L20 24H17.7931L12 17Z" fill="#EEEEEE"/>
<path d="M12 10.6667L6.2069 17.6667H4L12 8L20 17.6667H17.7931L12 10.6667Z" fill="#EEEEEE"/>
<path d="M12 41L6.2069 48H4L12 38.3333L20 48H17.7931L12 41Z" fill="#EEEEEE"/>
<path d="M12 34.6667L6.2069 41.6667H4L12 32L20 41.6667H17.7931L12 34.6667Z" fill="#EEEEEE"/>
<path d="M12 65L6.2069 72H4L12 62.3333L20 72H17.7931L12 65Z" fill="#EEEEEE"/>
<path d="M12 58.6667L6.2069 65.6667H4L12 56L20 65.6667H17.7931L12 58.6667Z" fill="#EEEEEE"/>
<path d="M12 89L6.2069 96H4L12 86.3333L20 96H17.7931L12 89Z" fill="#EEEEEE"/>
<path d="M12 82.6667L6.2069 89.6667H4L12 80L20 89.6667H17.7931L12 82.6667Z" fill="#EEEEEE"/>
</svg>
