<svg width="24" height="104" viewBox="0 0 24 104" fill="none" xmlns="http://www.w3.org/2000/svg">
<rect x="23.5" y="103.5" width="23" height="103" rx="11.5" transform="rotate(180 23.5 103.5)" stroke="#EEEEEE"/>
<path d="M12 87L17.7931 80H20L12 89.6666L4 80H6.2069L12 87Z" fill="#EEEEEE"/>
<path d="M12 93.3333L17.7931 86.3333H20L12 96L4 86.3333H6.2069L12 93.3333Z" fill="#EEEEEE"/>
<path d="M12 63L17.7931 56H20L12 65.6666L4 56H6.2069L12 63Z" fill="#EEEEEE"/>
<path d="M12 69.3333L17.7931 62.3333H20L12 72L4 62.3333H6.2069L12 69.3333Z" fill="#EEEEEE"/>
<path d="M12 39L17.7931 32H20L12 41.6666L4 32H6.2069L12 39Z" fill="#EEEEEE"/>
<path d="M12 45.3333L17.7931 38.3333H20L12 48L4 38.3333H6.2069L12 45.3333Z" fill="#EEEEEE"/>
<path d="M12 15L17.7931 7.99996H20L12 17.6666L4 7.99996H6.2069L12 15Z" fill="#EEEEEE"/>
<path d="M12 21.3333L17.7931 14.3333H20L12 24L4 14.3333H6.2069L12 21.3333Z" fill="#EEEEEE"/>
</svg>
