<svg width="81" height="46" viewBox="0 0 81 46" fill="none" xmlns="http://www.w3.org/2000/svg">
<path d="M20.5 23C20.5 21.0302 20.2413 19.0796 19.7388 17.2597C19.2362 15.4399 18.4997 13.7863 17.5711 12.3934C16.6425 11.0005 15.5401 9.89563 14.3268 9.14181C13.1136 8.38799 11.8132 8 10.5 8C9.18678 8 7.88642 8.38799 6.67317 9.14181C5.45991 9.89563 4.35752 11.0005 3.42893 12.3934C2.50035 13.7863 1.76375 15.4399 1.2612 17.2597C0.758657 19.0796 0.5 21.0302 0.5 23L10.5 23H20.5Z" stroke="#EEEEEE"/>
<path d="M60.5 23C60.5 21.0302 60.2413 19.0796 59.7388 17.2597C59.2362 15.4399 58.4997 13.7863 57.5711 12.3934C56.6425 11.0005 55.5401 9.89563 54.3268 9.14181C53.1136 8.38799 51.8132 8 50.5 8C49.1868 8 47.8864 8.38799 46.6732 9.14181C45.4599 9.89563 44.3575 11.0005 43.4289 12.3934C42.5003 13.7863 41.7638 15.4399 41.2612 17.2597C40.7587 19.0796 40.5 21.0302 40.5 23L50.5 23H60.5Z" stroke="#EEEEEE"/>
<path d="M20.5 23C20.5 24.9698 20.7587 26.9204 21.2612 28.7402C21.7638 30.5601 22.5003 32.2137 23.4289 33.6066C24.3575 34.9995 25.4599 36.1044 26.6732 36.8582C27.8864 37.612 29.1868 38 30.5 38C31.8132 38 33.1136 37.612 34.3268 36.8582C35.5401 36.1044 36.6425 34.9995 37.5711 33.6066C38.4997 32.2137 39.2362 30.5601 39.7388 28.7403C40.2413 26.9204 40.5 24.9698 40.5 23L30.5 23L20.5 23Z" stroke="#EEEEEE"/>
<path d="M60.5 23C60.5 24.9698 60.7587 26.9204 61.2612 28.7402C61.7638 30.5601 62.5003 32.2137 63.4289 33.6066C64.3575 34.9995 65.4599 36.1044 66.6732 36.8582C67.8864 37.612 69.1868 38 70.5 38C71.8132 38 73.1136 37.612 74.3268 36.8582C75.5401 36.1044 76.6425 34.9995 77.5711 33.6066C78.4997 32.2137 79.2362 30.5601 79.7388 28.7403C80.2413 26.9204 80.5 24.9698 80.5 23L70.5 23L60.5 23Z" stroke="#EEEEEE"/>
<path d="M10.5 6V2" stroke="#EEEEEE" stroke-width="0.5"/>
<path d="M50.5 6V2" stroke="#EEEEEE" stroke-width="0.5"/>
<path d="M29.46 1.8H31.17L31.632 2.49V3.12L29.448 5.37V5.568H31.632V6H28.968V5.244L31.32 2.808L30.936 2.232H29.64L29.214 2.658L28.974 2.298L29.46 1.8Z" fill="#EEEEEE"/>
<path d="M50.5 4H32.5" stroke="#EEEEEE" stroke-width="0.5"/>
<path d="M28.5 4H10.5" stroke="#EEEEEE" stroke-width="0.5"/>
<path d="M30.5 44V40" stroke="#EEEEEE" stroke-width="0.5"/>
<path d="M70.5 44V40" stroke="#EEEEEE" stroke-width="0.5"/>
<path d="M49.46 39.8H51.17L51.632 40.49V41.12L49.448 43.37V43.568H51.632V44H48.968V43.244L51.32 40.808L50.936 40.232H49.64L49.214 40.658L48.974 40.298L49.46 39.8Z" fill="#EEEEEE"/>
<path d="M70.5 42H52.5" stroke="#EEEEEE" stroke-width="0.5"/>
<path d="M48.5 42H30.5" stroke="#EEEEEE" stroke-width="0.5"/>
</svg>
