<svg width="42" height="43" viewBox="0 0 42 43" fill="none" xmlns="http://www.w3.org/2000/svg">
<g clip-path="url(#clip0_41_1025)">
<path d="M34.7901 34.1336L27.3204 21.5808L34.7901 9.02797L38.3909 21.5808L34.7901 34.1336ZM18.1655 32.9087L8.78034 23.609H23.7196L31.1892 36.1618L18.1655 32.9087ZM18.1655 10.2145L31.1511 6.96137L23.6815 19.5142H8.74231L18.1655 10.2145ZM37.2418 0.799988L20.272 5.20122L17.7439 9.52563L12.6495 9.48722L0.199997 21.5808L12.6495 33.6743L17.7439 33.6359L20.272 37.9604L37.2418 42.4L41.8 25.9052L39.2334 21.6192L41.8 17.3328L37.2418 0.799988Z" fill="#EEEEEE"/>
</g>
<defs>
<clipPath id="clip0_41_1025">
<rect width="41.6" height="41.6" fill="white" transform="translate(0.199997 0.799988)"/>
</clipPath>
</defs>
</svg>
