<svg width="42" height="42" viewBox="0 0 42 42" fill="none" xmlns="http://www.w3.org/2000/svg">
<g clip-path="url(#clip0_41_1027)">
<path d="M16.614 23.8736C16.7662 20.997 18.0952 18.4627 20.1003 16.6662C22.0666 14.9016 24.7132 13.8231 27.6009 13.8231C30.4857 13.8231 33.1324 14.9016 35.1001 16.6662C37.1037 18.4627 38.4327 20.997 38.5863 23.8706C38.7384 26.8263 37.6175 29.572 35.6512 31.6074C33.6462 33.6778 30.7943 34.9769 27.6009 34.9769C24.4074 34.9769 21.5499 33.6778 19.5462 31.6074C17.5785 29.572 16.4605 26.8263 16.614 23.8736Z" fill="#D20101"/>
<path d="M21.607 23.6473C21.6831 22.2666 22.3476 21.0501 23.3501 20.1878C24.3333 19.3407 25.6566 18.8231 27.1005 18.8231C28.5429 18.8231 29.8662 19.3407 30.8501 20.1878C31.8519 21.0501 32.5164 22.2666 32.5932 23.6459C32.6692 25.0646 32.1088 26.3826 31.1256 27.3595C30.1231 28.3533 28.6972 28.9769 27.1005 28.9769C25.5037 28.9769 24.0749 28.3533 23.0731 27.3595C22.0893 26.3826 21.5302 25.0646 21.607 23.6473Z" fill="#EEEEEE"/>
<path d="M13.158 26.6101C13.1674 27.1865 13.3381 28.3067 13.5941 29.1815C14.1321 31.033 15.0447 32.7459 16.3146 34.2556C17.6177 35.8072 19.2224 37.0536 21.0759 37.9384C23.0241 38.8677 25.135 39.3414 27.3276 39.3375C29.5166 39.3344 31.6275 38.8514 33.5757 37.9151C35.4292 37.0216 37.0324 35.7699 38.3334 34.2174C39.6025 32.7016 40.5137 30.9855 41.0532 29.1339C41.3244 28.1984 41.4958 27.2489 41.5645 26.2962C41.6317 25.3576 41.6035 24.4174 41.4799 23.4779C41.2383 21.6474 40.6504 19.9298 39.745 18.3641C38.917 16.9254 37.8496 15.6658 36.5805 14.6056L36.5834 14.6033L23.7754 4.01028C23.7639 4.00093 23.7545 3.99082 23.7422 3.98225C22.9019 3.28742 21.4888 3.28977 20.5646 3.98615C19.6303 4.69033 19.5233 5.85485 20.3549 6.5894L20.3513 6.5933L25.6933 11.2725L9.4113 11.2912H9.3896C8.0438 11.2927 6.75007 12.2438 6.49407 13.4458C6.23084 14.6703 7.14491 15.686 8.54423 15.6915L8.54206 15.697L16.7948 15.6798L2.06832 27.8557C2.04952 27.8705 2.02926 27.886 2.01191 27.9008C0.622717 29.0467 0.173644 30.952 1.04867 32.1578C1.93671 33.3839 3.82488 33.3862 5.22854 32.1648L13.2657 25.0795C13.2657 25.0795 13.1486 26.036 13.158 26.6101ZM33.8107 29.8132C32.1547 31.6305 29.8363 32.661 27.3276 32.6665C24.8153 32.6712 22.4969 31.65 20.8409 29.8358C20.0316 28.9517 19.4372 27.9343 19.0706 26.8508C18.7111 25.786 18.5716 24.6557 18.6641 23.5153C18.7516 22.4006 19.0597 21.3374 19.5515 20.3754C20.0345 19.4297 20.6998 18.5752 21.5214 17.8523C23.1311 16.4393 25.1805 15.6744 27.324 15.6712C29.4696 15.6681 31.5176 16.4261 33.1288 17.8344C33.9489 18.5542 34.6135 19.4056 35.0965 20.3497C35.5905 21.3109 35.8963 22.3703 35.9875 23.4881C36.0786 24.6269 35.939 25.7556 35.5796 26.8212C35.2122 27.9079 34.62 28.9252 33.8107 29.8132Z" fill="#EEEEEE"/>
</g>
<defs>
<clipPath id="clip0_41_1027">
<rect width="41.6" height="41.6" fill="white" transform="translate(0.199997 0.399994)"/>
</clipPath>
</defs>
</svg>
