<svg width="52" height="19" viewBox="0 0 52 19" fill="none" xmlns="http://www.w3.org/2000/svg">
<g clip-path="url(#clip0_191_4510)">
<path d="M11 0.599976L17 0.599976L20 3.74283L15.5 11.6L12.5 11.6L8 3.74283L11 0.599976Z" fill="#EEEEEE"/>
<path d="M27 0.599976L33 0.599976L36 3.74283L31.5 11.6L28.5 11.6L24 3.74283L27 0.599976Z" fill="#EEEEEE"/>
<path d="M43 0.599976L49 0.599976L52 3.74283L47.5 11.6L44.5 11.6L40 3.74283L43 0.599976Z" fill="#EEEEEE"/>
<path d="M9 18.6H3L0 15.4571L4.5 7.59998H7.5L12 15.4571L9 18.6Z" fill="#EEEEEE"/>
<path d="M25 18.6H19L16 15.4571L20.5 7.59998H23.5L28 15.4571L25 18.6Z" fill="#EEEEEE"/>
<path d="M41 18.6H35L32 15.4571L36.5 7.59998H39.5L44 15.4571L41 18.6Z" fill="#EEEEEE"/>
</g>
<defs>
<clipPath id="clip0_191_4510">
<rect width="52" height="18" fill="white" transform="translate(0 0.599976)"/>
</clipPath>
</defs>
</svg>
