<svg width="42" height="42" viewBox="0 0 42 42" fill="none" xmlns="http://www.w3.org/2000/svg">
<mask id="mask0_627_3388" style="mask-type:luminance" maskUnits="userSpaceOnUse" x="0" y="0" width="42" height="42">
<path d="M41.7999 0.399902H0.199951V41.9999H41.7999V0.399902Z" fill="white"/>
</mask>
<g mask="url(#mask0_627_3388)">
<path d="M21.6071 23.6472C21.6832 22.2665 22.3477 21.05 23.3502 20.1877C24.3334 19.3406 25.6567 18.823 27.1006 18.823C28.543 18.823 29.8663 19.3406 30.8502 20.1877C31.852 21.05 32.5165 22.2665 32.5933 23.6458C32.6693 25.0645 32.1089 26.3825 31.1257 27.3594C30.1232 28.3532 28.6973 28.9768 27.1006 28.9768C25.5038 28.9768 24.075 28.3532 23.0732 27.3594C22.0894 26.3825 21.5303 25.0645 21.6071 23.6472Z" fill="#EEEEEE"/>
<path d="M13.1581 26.61C13.1675 27.1864 13.3382 28.3066 13.5942 29.1814C14.1322 31.0329 15.0448 32.7458 16.3147 34.2555C17.6178 35.8071 19.2225 37.0535 21.076 37.9383C23.0242 38.8676 25.1351 39.3413 27.3277 39.3374C29.5167 39.3343 31.6276 38.8513 33.5758 37.915C35.4293 37.0215 37.0325 35.7698 38.3335 34.2173C39.6026 32.7015 40.5138 30.9854 41.0533 29.1338C41.3245 28.1983 41.4959 27.2488 41.5646 26.2961C41.6318 25.3575 41.6036 24.4173 41.48 23.4778C41.2384 21.6473 40.6505 19.9297 39.7451 18.364C38.9171 16.9253 37.8497 15.6657 36.5806 14.6055L36.5835 14.6032L23.7755 4.01019C23.764 4.00084 23.7546 3.99073 23.7423 3.98216C22.902 3.28733 21.4889 3.28968 20.5647 3.98606C19.6304 4.69024 19.5234 5.85476 20.355 6.58931L20.3514 6.59321L25.6934 11.2724L9.41138 11.2911H9.38968C8.04388 11.2926 6.75015 12.2437 6.49415 13.4457C6.23092 14.6702 7.14499 15.6859 8.54431 15.6914L8.54214 15.6969L16.7949 15.6797L2.0684 27.8556C2.0496 27.8704 2.02934 27.8859 2.01199 27.9007C0.622793 29.0466 0.17372 30.9519 1.04875 32.1577C1.93679 33.3838 3.82496 33.3861 5.22862 32.1647L13.2658 25.0794C13.2658 25.0794 13.1487 26.0359 13.1581 26.61ZM33.8108 29.8131C32.1548 31.6304 29.8364 32.6609 27.3277 32.6664C24.8154 32.6711 22.497 31.6499 20.841 29.8357C20.0317 28.9516 19.4373 27.9342 19.0707 26.8507C18.7112 25.7859 18.5717 24.6556 18.6642 23.5152C18.7517 22.4005 19.0598 21.3373 19.5516 20.3753C20.0346 19.4296 20.6999 18.5751 21.5215 17.8522C23.1312 16.4392 25.1806 15.6743 27.3241 15.6711C29.4697 15.668 31.5177 16.426 33.1289 17.8343C33.949 18.5541 34.6136 19.4055 35.0966 20.3496C35.5906 21.3108 35.8964 22.3702 35.9876 23.488C36.0787 24.6268 35.9391 25.7555 35.5797 26.8211C35.2123 27.9078 34.6201 28.9251 33.8108 29.8131Z" fill="#EEEEEE"/>
</g>
</svg>
