<svg width="42" height="42" viewBox="0 0 42 42" fill="none" xmlns="http://www.w3.org/2000/svg">
<rect x="0.199997" y="0.200012" width="41.6" height="41.6" rx="8" fill="#EEE"/>
<path d="M20.6841 25.0944H14.1757L12.8514 29.3134C12.8147 29.4702 12.6703 29.5812 12.5133 29.5735H9.21686C9.02887 29.5735 8.96313 29.4676 9.01963 29.2557L14.6546 12.6107C14.711 12.4374 14.7674 12.2399 14.8237 12.0183C14.8974 11.6328 14.9351 11.2409 14.9364 10.848C14.9203 10.7319 15.0223 10.6294 15.1336 10.6457H19.6134C19.7446 10.6457 19.8198 10.6939 19.8388 10.7902L26.2346 29.2845C26.2909 29.4773 26.2345 29.5737 26.0655 29.5735H22.4027C22.2742 29.5881 22.1516 29.5 22.121 29.3712L20.6841 25.0944ZM15.1899 21.4533H19.6416C18.9102 18.9541 18.0848 16.4877 17.4158 13.9689C16.694 16.4919 15.9065 19.0047 15.1899 21.4533Z" fill="#0A0A0A"/>
<path d="M30.0378 13.7087C29.7505 13.7206 29.4639 13.6701 29.1969 13.5605C28.9298 13.451 28.6884 13.2848 28.4882 13.073C28.2886 12.852 28.1336 12.5927 28.0321 12.31C27.9305 12.0273 27.8844 11.7269 27.8965 11.4259C27.8862 11.1278 27.9374 10.8309 28.0467 10.5546C28.1559 10.2782 28.3207 10.0286 28.5304 9.82203C28.7381 9.6176 28.9832 9.45743 29.2516 9.35079C29.52 9.24415 29.8064 9.19315 30.0942 9.20075C30.7704 9.20075 31.301 9.40785 31.6861 9.82203C31.8804 10.0373 32.0315 10.2897 32.1306 10.5649C32.2297 10.8401 32.2749 11.1327 32.2636 11.4259C32.2754 11.728 32.2278 12.0295 32.1238 12.3125C32.0197 12.5955 31.8613 12.8541 31.6579 13.073C31.4453 13.288 31.1916 13.4554 30.9127 13.5648C30.6339 13.6742 30.336 13.7232 30.0378 13.7087ZM28.0937 29.2844V15.4715C28.0937 15.2981 28.1686 15.2114 28.3191 15.2114L31.7847 15.2114C31.9348 15.2114 32.01 15.2981 32.0101 15.4715V29.2844C32.0101 29.4772 31.935 29.5736 31.7847 29.5734H28.3473C28.1783 29.5734 28.0938 29.4771 28.0937 29.2844Z" fill="#0A0A0A"/>
</svg>
